<svg width="34" height="36" viewBox="0 0 34 36" fill="none" xmlns="http://www.w3.org/2000/svg">
<path fill-rule="evenodd" clip-rule="evenodd" d="M13.8966 1.025C14.6432 0.801052 15.4317 0.754725 16.1993 0.889714C16.9669 1.0247 17.6923 1.33727 18.3177 1.80246C18.943 2.26765 19.4509 2.87259 19.8009 3.56898C20.1509 4.26538 20.3332 5.03394 20.3333 5.81333V30.1867C20.3332 30.966 20.1509 31.7346 19.8009 32.431C19.4509 33.1274 18.943 33.7323 18.3177 34.1975C17.6923 34.6627 16.9669 34.9753 16.1993 35.1103C15.4317 35.2453 14.6432 35.1989 13.8966 34.975L3.89665 31.975C2.86681 31.6661 1.964 31.0334 1.32212 30.1709C0.680236 29.3083 0.333489 28.2618 0.333313 27.1867V8.81333C0.333489 7.73816 0.680236 6.69168 1.32212 5.82914C1.964 4.96659 2.86681 4.33393 3.89665 4.025L13.8966 1.025V1.025ZM22 4.66666C22 4.22463 22.1756 3.80071 22.4881 3.48815C22.8007 3.17559 23.2246 3 23.6666 3H28.6666C29.9927 3 31.2645 3.52678 32.2022 4.46446C33.1399 5.40214 33.6666 6.67391 33.6666 7.99999V9.66666C33.6666 10.1087 33.4911 10.5326 33.1785 10.8452C32.8659 11.1577 32.442 11.3333 32 11.3333C31.558 11.3333 31.134 11.1577 30.8215 10.8452C30.5089 10.5326 30.3333 10.1087 30.3333 9.66666V7.99999C30.3333 7.55797 30.1577 7.13404 29.8452 6.82148C29.5326 6.50892 29.1087 6.33333 28.6666 6.33333H23.6666C23.2246 6.33333 22.8007 6.15773 22.4881 5.84517C22.1756 5.53261 22 5.10869 22 4.66666ZM32 24.6667C32.442 24.6667 32.8659 24.8423 33.1785 25.1548C33.4911 25.4674 33.6666 25.8913 33.6666 26.3333V28C33.6666 29.3261 33.1399 30.5978 32.2022 31.5355C31.2645 32.4732 29.9927 33 28.6666 33H23.6666C23.2246 33 22.8007 32.8244 22.4881 32.5118C22.1756 32.1993 22 31.7754 22 31.3333C22 30.8913 22.1756 30.4674 22.4881 30.1548C22.8007 29.8423 23.2246 29.6667 23.6666 29.6667H28.6666C29.1087 29.6667 29.5326 29.4911 29.8452 29.1785C30.1577 28.8659 30.3333 28.442 30.3333 28V26.3333C30.3333 25.8913 30.5089 25.4674 30.8215 25.1548C31.134 24.8423 31.558 24.6667 32 24.6667ZM12 16.3333C11.558 16.3333 11.134 16.5089 10.8215 16.8215C10.5089 17.134 10.3333 17.558 10.3333 18C10.3333 18.442 10.5089 18.8659 10.8215 19.1785C11.134 19.4911 11.558 19.6667 12 19.6667H12.0016C12.4437 19.6667 12.8676 19.4911 13.1802 19.1785C13.4927 18.8659 13.6683 18.442 13.6683 18C13.6683 17.558 13.4927 17.134 13.1802 16.8215C12.8676 16.5089 12.4437 16.3333 12.0016 16.3333H12Z" fill="#000F08"/>
<path d="M32 18L28.6666 21.3333M23.6666 18H32H23.6666ZM32 18L28.6666 14.6667L32 18Z" stroke="#82C09A" stroke-width="3.33333" stroke-linecap="round" stroke-linejoin="round"/>
</svg>
