<svg width="19" height="19" viewBox="0 0 19 19" fill="none" xmlns="http://www.w3.org/2000/svg">
<path d="M14.6031 5.95442C14.5416 5.94417 14.4698 5.94417 14.4083 5.95442C12.9942 5.90318 11.8669 4.7452 11.8669 3.31054C11.8669 1.84513 13.0454 0.666656 14.5108 0.666656C15.9762 0.666656 17.1547 1.85538 17.1547 3.31054C17.1445 4.7452 16.0172 5.90318 14.6031 5.95442Z" fill="#1C3738"/>
<path d="M13.5476 12.185C14.9515 12.4207 16.4989 12.1747 17.5851 11.4471C19.0301 10.4839 19.0301 8.90575 17.5851 7.94247C16.4887 7.21489 14.9208 6.96894 13.5168 7.21489" fill="#1C3738"/>
<path d="M4.73427 5.95442C4.79576 5.94417 4.86749 5.94417 4.92897 5.95442C6.34314 5.90318 7.47038 4.7452 7.47038 3.31054C7.47038 1.84513 6.29191 0.666656 4.8265 0.666656C3.36109 0.666656 2.18262 1.85538 2.18262 3.31054C2.19286 4.7452 3.3201 5.90318 4.73427 5.95442Z" fill="#1C3738"/>
<path d="M5.78994 12.185C4.38602 12.4207 2.83863 12.1747 1.75238 11.4471C0.307473 10.4839 0.307473 8.90575 1.75238 7.94247C2.84888 7.21489 4.41676 6.96894 5.82068 7.21489" fill="#1C3738"/>
<path d="M9.68435 12.3797C9.62286 12.3694 9.55113 12.3694 9.48965 12.3797C8.07548 12.3284 6.94824 11.1704 6.94824 9.73577C6.94824 8.27036 8.12671 7.09189 9.59212 7.09189C11.0575 7.09189 12.236 8.28061 12.236 9.73577C12.2258 11.1704 11.0985 12.3387 9.68435 12.3797Z" fill="#1C3738"/>
<path d="M6.70209 14.3779C5.25718 15.3412 5.25718 16.9193 6.70209 17.8826C8.34171 18.9791 11.0266 18.9791 12.6662 17.8826C14.1111 16.9193 14.1111 15.3412 12.6662 14.3779C11.0368 13.2917 8.34171 13.2917 6.70209 14.3779Z" fill="#1C3738"/>
</svg>
