<svg width="25" height="28" viewBox="0 0 25 28" fill="none" xmlns="http://www.w3.org/2000/svg">
<path d="M12.5002 9.42604e-09C13.622 -7.34424e-05 14.7013 0.429132 15.5167 1.19957C16.3321 1.97001 16.8218 3.02327 16.8853 4.14329L16.8921 4.39195H23.9868C24.2436 4.39202 24.4908 4.48957 24.6784 4.66489C24.866 4.8402 24.9801 5.0802 24.9976 5.33639C25.0151 5.59258 24.9347 5.84587 24.7727 6.04507C24.6106 6.24427 24.379 6.37454 24.1246 6.40954L23.9868 6.419H22.9111L21.1813 24.0138C21.0947 24.891 20.699 25.7088 20.0651 26.3212C19.4311 26.9336 18.6001 27.3008 17.7205 27.3571L17.4826 27.3652H7.51766C6.63584 27.3652 5.78276 27.0516 5.11088 26.4805C4.439 25.9093 3.9921 25.1179 3.85005 24.2476L3.81897 24.0125L2.08786 6.419H1.01353C0.768607 6.41899 0.531977 6.33029 0.347395 6.16931C0.162814 6.00833 0.0427685 5.78595 0.00945954 5.54331L0 5.40547C1.03284e-05 5.16055 0.0887074 4.92392 0.249688 4.73934C0.410669 4.55476 0.633043 4.43471 0.875687 4.40141L1.01353 4.39195H8.10821C8.10821 3.22713 8.57093 2.11002 9.39458 1.28637C10.2182 0.462721 11.3353 9.42604e-09 12.5002 9.42604e-09ZM20.8746 6.419H4.12438L5.83656 23.8138C5.87447 24.2019 6.04551 24.565 6.32065 24.8414C6.59579 25.1177 6.95808 25.2904 7.34604 25.33L7.51766 25.3382H17.4826C18.2935 25.3382 18.9813 24.7638 19.1381 23.9841L19.1651 23.8138L20.8732 6.419H20.8746ZM14.865 10.1353C15.11 10.1353 15.3466 10.224 15.5312 10.3849C15.7158 10.5459 15.8358 10.7683 15.8691 11.0109L15.8786 11.1488V20.6084C15.8785 20.8652 15.7809 21.1123 15.6056 21.3C15.4303 21.4876 15.1903 21.6017 14.9341 21.6192C14.6779 21.6367 14.4246 21.5563 14.2254 21.3943C14.0262 21.2322 13.896 21.0006 13.861 20.7462L13.8515 20.6084V11.1488C13.8515 10.88 13.9583 10.6222 14.1484 10.4321C14.3385 10.242 14.5962 10.1353 14.865 10.1353ZM10.1353 10.1353C10.3802 10.1353 10.6168 10.224 10.8014 10.3849C10.986 10.5459 11.106 10.7683 11.1393 11.0109L11.1488 11.1488V20.6084C11.1487 20.8652 11.0512 21.1123 10.8758 21.3C10.7005 21.4876 10.4605 21.6017 10.2043 21.6192C9.94815 21.6367 9.69486 21.5563 9.49566 21.3943C9.29646 21.2322 9.1662 21.0006 9.13119 20.7462L9.12173 20.6084V11.1488C9.12173 10.88 9.22852 10.6222 9.41859 10.4321C9.60866 10.242 9.86646 10.1353 10.1353 10.1353ZM12.5002 2.02705C11.9066 2.02707 11.3348 2.25026 10.8983 2.6523C10.4617 3.05435 10.1922 3.60585 10.1434 4.19735L10.1353 4.39195H14.865C14.865 3.76474 14.6159 3.16322 14.1724 2.71971C13.7289 2.27621 13.1274 2.02705 12.5002 2.02705Z" fill="#FF325C"/>
</svg>
