<svg width="32" height="32" viewBox="0 0 32 32" fill="none" xmlns="http://www.w3.org/2000/svg">
<path d="M28.08 15.76L27.8667 15.4667C27.4933 15.0133 27.0533 14.6533 26.5467 14.3867C25.8667 14 25.0933 13.8 24.2933 13.8H7.69333C6.89333 13.8 6.13333 14 5.44 14.3867C4.92 14.6667 4.45333 15.0533 4.06667 15.5333C3.30667 16.5067 2.94667 17.7067 3.06667 18.9067L3.56 25.1333C3.73333 27.0133 3.96 29.3333 8.18666 29.3333H23.8133C28.04 29.3333 28.2533 27.0133 28.44 25.12L28.9333 18.92C29.0533 17.8 28.76 16.68 28.08 15.76ZM19.1867 23.12H12.8C12.28 23.12 11.8667 22.6933 11.8667 22.1867C11.8667 21.68 12.28 21.2533 12.8 21.2533H19.1867C19.7067 21.2533 20.12 21.68 20.12 22.1867C20.12 22.7067 19.7067 23.12 19.1867 23.12Z" fill="#1C3738"/>
<path opacity="0.4" d="M4.50665 15.08C4.79999 14.8133 5.09332 14.5733 5.43999 14.3867C6.11999 14 6.89332 13.8 7.69332 13.8H24.3067C25.1067 13.8 25.8667 14 26.56 14.3867C26.9067 14.5733 27.2133 14.8133 27.4933 15.0933V14.3867V13.0933C27.4933 8.33332 26.04 6.87999 21.28 6.87999H18.1067C17.52 6.87999 17.5067 6.86666 17.16 6.41332L15.56 4.26666C14.8 3.27999 14.2 2.66666 12.2933 2.66666H10.72C5.95999 2.66666 4.50665 4.11999 4.50665 8.87999V14.4V15.08Z" fill="#000F08"/>
</svg>
