<svg width="25" height="21" viewBox="0 0 25 21" fill="none" xmlns="http://www.w3.org/2000/svg">
<path d="M12.6331 11.0583C12.5498 11.05 12.4498 11.05 12.3581 11.0583C10.3748 10.9917 8.7998 9.36667 8.7998 7.36667C8.7998 5.32501 10.4498 3.66667 12.4998 3.66667C14.5415 3.66667 16.1998 5.32501 16.1998 7.36667C16.1915 9.36667 14.6165 10.9917 12.6331 11.0583Z" fill="#1C3738"/>
<path d="M8.4666 14.1333C6.44993 15.4833 6.44993 17.6833 8.4666 19.025C10.7583 20.5583 14.5166 20.5583 16.8083 19.025C18.8249 17.675 18.8249 15.475 16.8083 14.1333C14.5249 12.6083 10.7666 12.6083 8.4666 14.1333Z" fill="#1C3738"/>
<path opacity="0.4" d="M18.6331 8.05834C18.5498 8.05 18.4498 8.05 18.3581 8.05834C16.3748 7.99167 14.7998 6.36667 14.7998 4.36667C14.7998 2.32501 16.4498 0.666672 18.4998 0.666672C20.5415 0.666672 22.1998 2.32501 22.1998 4.36667C22.1915 6.36667 20.6165 7.99167 18.6331 8.05834Z" fill="#1C3738"/>
<path opacity="0.4" d="M14.4666 11.1333C12.4499 12.4833 12.4499 14.6833 14.4666 16.025C16.7583 17.5583 20.5166 17.5583 22.8083 16.025C24.8249 14.675 24.8249 12.475 22.8083 11.1333C20.5249 9.60834 16.7666 9.60834 14.4666 11.1333Z" fill="#1C3738"/>
<path opacity="0.4" d="M6.63314 8.05834C6.5498 8.05 6.4498 8.05 6.35814 8.05834C4.3748 7.99167 2.7998 6.36667 2.7998 4.36667C2.7998 2.32501 4.4498 0.666672 6.4998 0.666672C8.54147 0.666672 10.1998 2.32501 10.1998 4.36667C10.1915 6.36667 8.61647 7.99167 6.63314 8.05834Z" fill="#1C3738"/>
<path opacity="0.4" d="M2.4666 11.1333C0.449935 12.4833 0.449935 14.6833 2.4666 16.025C4.75827 17.5583 8.5166 17.5583 10.8083 16.025C12.8249 14.675 12.8249 12.475 10.8083 11.1333C8.52493 9.60834 4.7666 9.60834 2.4666 11.1333Z" fill="#1C3738"/>
</svg>
