<svg width="12" height="12" viewBox="0 0 12 12" fill="none" xmlns="http://www.w3.org/2000/svg">
<path fill-rule="evenodd" clip-rule="evenodd" d="M0.1875 1.5C0.1875 0.775126 0.775126 0.1875 1.5 0.1875H5.625C5.93566 0.1875 6.1875 0.43934 6.1875 0.75C6.1875 1.06066 5.93566 1.3125 5.625 1.3125H1.5C1.39645 1.3125 1.3125 1.39645 1.3125 1.5V10.5C1.3125 10.6036 1.39645 10.6875 1.5 10.6875H10.5C10.6036 10.6875 10.6875 10.6036 10.6875 10.5V6.375C10.6875 6.06434 10.9393 5.8125 11.25 5.8125C11.5607 5.8125 11.8125 6.06434 11.8125 6.375V10.5C11.8125 11.2249 11.2249 11.8125 10.5 11.8125H1.5C0.775126 11.8125 0.1875 11.2249 0.1875 10.5V1.5ZM7.3125 0.75C7.3125 0.43934 7.56434 0.1875 7.875 0.1875H11.25C11.5607 0.1875 11.8125 0.43934 11.8125 0.75V4.125C11.8125 4.43566 11.5607 4.6875 11.25 4.6875C10.9393 4.6875 10.6875 4.43566 10.6875 4.125V2.10799L4.89775 7.89775C4.67808 8.11742 4.32192 8.11742 4.10225 7.89775C3.88258 7.67808 3.88258 7.32192 4.10225 7.10225L9.89201 1.3125H7.875C7.56434 1.3125 7.3125 1.06066 7.3125 0.75Z" fill="#0059C8"/>
</svg>
