<svg xmlns="http://www.w3.org/2000/svg" version="1.1" xmlns:xlink="http://www.w3.org/1999/xlink" xmlns:svgjs="http://svgjs.com/svgjs" width="139" height="39"><svg width="139" height="39" viewBox="0 0 139 39" fill="none" xmlns="http://www.w3.org/2000/svg">
<path d="M108.424 0V5.81198H104.367L97.9916 28.9513C97.9184 29.3134 97.8817 29.6755 97.8817 30.0376C97.8817 30.9067 98.1199 31.5223 98.5962 31.8844C99.1092 32.2465 99.9337 32.4276 101.07 32.4276H104.807L103.708 38.3482H98.871C96.3794 38.3482 94.3824 37.8412 92.8801 36.8273C91.4144 35.8134 90.6816 34.0571 90.6816 31.5585C90.6816 30.7618 90.7732 29.8746 90.9564 28.8969L97.2771 5.81198H92.8801L93.9244 0H108.424Z" fill="#1C3738"></path>
<path d="M137.901 5.81198H112.088V0H139L138.613 2.04596L133.981 2.04596V3.85655H138.271L137.901 5.81198Z" fill="#1C3738"></path>
<path d="M6.81541 0.325903L0 38.3482H7.03526L9.94829 21.9443H23.5241L24.5135 16.6212H10.9376L12.8613 5.81198H29.7899L30.8342 0.325903H6.81541Z" fill="#1C3738"></path>
<path fill-rule="evenodd" clip-rule="evenodd" d="M29.5203 36.9359C30.9493 38.312 33.2028 39 36.2807 39C38.5159 39 40.4212 38.5474 41.9968 37.6421C43.6091 36.7006 44.9465 35.5418 46.0091 34.1657L45.7343 38.3482H52.0001L54.9681 21.7813C55.0414 21.383 55.0963 20.9847 55.133 20.5863C55.1696 20.1518 55.188 19.7535 55.188 19.3914C55.188 16.6031 54.2169 14.4666 52.2749 12.9819C50.3695 11.4972 47.7313 10.7549 44.3603 10.7549C42.0518 10.7549 39.9083 11.1532 37.9296 11.9499C35.9509 12.7103 34.2654 13.8148 32.873 15.2632C31.5172 16.7117 30.5646 18.4136 30.0149 20.3691H36.8853C37.3983 19.0655 38.241 18.0877 39.4136 17.4359C40.6228 16.7479 41.9419 16.4039 43.3709 16.4039C44.7267 16.4039 45.8442 16.7479 46.7237 17.4359C47.6031 18.0877 48.0428 19.1017 48.0428 20.4777C48.0428 20.6588 48.0245 20.876 47.9878 21.1295C47.9878 21.3468 47.9695 21.5641 47.9328 21.7813L47.8229 22.4331H40.8976C36.7937 22.4331 33.5142 23.2841 31.0592 24.9861C28.6042 26.688 27.3767 28.9875 27.3767 31.8844C27.3767 33.8398 28.0912 35.5237 29.5203 36.9359ZM43.8656 31.6128C42.5465 32.9164 40.8793 33.5682 38.864 33.5682C37.6914 33.5682 36.7387 33.351 36.0059 32.9164C35.3097 32.4457 34.9616 31.7577 34.9616 30.8524C34.9616 29.585 35.4929 28.5891 36.5555 27.8649C37.6181 27.1407 39.0655 26.7786 40.8976 26.7786H46.8336C46.2107 28.6978 45.2213 30.3092 43.8656 31.6128Z" fill="#1C3738"></path>
<path d="M70.2036 39C67.7119 39 65.5867 38.5836 63.8279 37.7507C62.1057 36.9178 60.8049 35.7772 59.9255 34.3287C59.0461 32.8802 58.6797 31.2326 58.8262 29.3858H65.8615C65.8249 30.6532 66.2462 31.6852 67.1256 32.4819C68.0051 33.2785 69.3242 33.6769 71.083 33.6769C72.6219 33.6769 73.8128 33.351 74.6556 32.6992C75.535 32.0473 75.9747 31.2145 75.9747 30.2006C75.9747 29.2953 75.5167 28.6435 74.6006 28.2451C73.6846 27.8106 72.512 27.4304 71.083 27.1045C69.5807 26.7423 68.115 26.2716 66.6859 25.6922C65.2569 25.1128 64.066 24.3524 63.1133 23.4109C62.1973 22.4694 61.7393 21.2563 61.7393 19.7716C61.7393 18.0334 62.2523 16.4944 63.2782 15.1546C64.3409 13.7785 65.7882 12.7103 67.6203 11.9499C69.4524 11.1532 71.5593 10.7549 73.941 10.7549C77.1655 10.7549 79.7122 11.5153 81.5809 13.0362C83.4496 14.5571 84.3474 16.6212 84.2741 19.2284H77.5136C77.477 18.2869 77.0556 17.5265 76.2495 16.9471C75.48 16.3677 74.454 16.078 73.1716 16.078C71.8525 16.078 70.7715 16.3677 69.9288 16.9471C69.1226 17.4902 68.7196 18.1783 68.7196 19.0111C68.7196 19.8078 69.1959 20.4234 70.1486 20.8579C71.1379 21.2563 72.4204 21.6365 73.996 21.9986C75.7182 22.3969 77.2571 22.8858 78.6129 23.4652C80.0053 24.0446 81.1046 24.805 81.9107 25.7465C82.7534 26.6518 83.1748 27.8468 83.1748 29.3315C83.1748 31.2869 82.6069 32.9889 81.471 34.4373C80.3351 35.8858 78.7778 37.0084 76.7991 37.805C74.8571 38.6017 72.6586 39 70.2036 39Z" fill="#1C3738"></path>
<path fill-rule="evenodd" clip-rule="evenodd" d="M118.993 39C115.916 39 113.662 38.312 112.233 36.9359C110.804 35.5237 110.089 33.8398 110.089 31.8844C110.089 28.9875 111.317 26.688 113.772 24.9861C116.227 23.2841 119.506 22.4331 123.61 22.4331H130.536L130.646 21.7813C130.682 21.5641 130.701 21.3468 130.701 21.1295C130.737 20.876 130.756 20.6588 130.756 20.4777C130.756 19.1017 130.316 18.0877 129.436 17.4359C128.557 16.7479 127.439 16.4039 126.084 16.4039C124.655 16.4039 123.336 16.7479 122.126 17.4359C120.954 18.0877 120.111 19.0655 119.598 20.3691H112.728C113.277 18.4136 114.23 16.7117 115.586 15.2632C116.978 13.8148 118.664 12.7103 120.642 11.9499C122.621 11.1532 124.765 10.7549 127.073 10.7549C130.444 10.7549 133.082 11.4972 134.988 12.9819C136.93 14.4666 137.901 16.6031 137.901 19.3914C137.901 19.7535 137.882 20.1518 137.846 20.5863C137.809 20.9847 137.754 21.383 137.681 21.7813L134.713 38.3482H128.447L128.722 34.1657C127.659 35.5418 126.322 36.7006 124.71 37.6421C123.134 38.5474 121.229 39 118.993 39ZM121.577 33.5682C123.592 33.5682 125.259 32.9164 126.578 31.6128C127.934 30.3092 128.923 28.6978 129.546 26.7786H123.61C121.778 26.7786 120.331 27.1407 119.268 27.8649C118.206 28.5891 117.674 29.585 117.674 30.8524C117.674 31.7577 118.022 32.4457 118.719 32.9164C119.452 33.351 120.404 33.5682 121.577 33.5682Z" fill="#1C3738"></path>
</svg><style>@media (prefers-color-scheme: light) { :root { filter: none; } }
</style></svg>